<?xml version="1.0" encoding="UTF-8" standalone="no"?>
<!-- Created with Inkscape (http://www.inkscape.org/) -->

<svg
   xmlns:dc="http://purl.org/dc/elements/1.1/"
   xmlns:cc="http://creativecommons.org/ns#"
   xmlns:rdf="http://www.w3.org/1999/02/22-rdf-syntax-ns#"
   xmlns:svg="http://www.w3.org/2000/svg"
   xmlns="http://www.w3.org/2000/svg"
   xmlns:sodipodi="http://sodipodi.sourceforge.net/DTD/sodipodi-0.dtd"
   xmlns:inkscape="http://www.inkscape.org/namespaces/inkscape"
   version="1.1"
   id="svg2"
   xml:space="preserve"
   width="1920"
   height="1079.5033"
   viewBox="0 0 1920 1079.5032"
   sodipodi:docname="background-1.svg"
   inkscape:version="0.92.1 r15371"><metadata
     id="metadata8"><rdf:RDF><cc:Work
         rdf:about=""><dc:format>image/svg+xml</dc:format><dc:type
           rdf:resource="http://purl.org/dc/dcmitype/StillImage" /><dc:title /></cc:Work></rdf:RDF></metadata><defs
     id="defs6"><clipPath
       clipPathUnits="userSpaceOnUse"
       id="clipPath20"><path
         d="M 0,800 H 800 V 0 H 0 Z"
         id="path18"
         inkscape:connector-curvature="0" /></clipPath><clipPath
       clipPathUnits="userSpaceOnUse"
       id="clipPath28"><path
         d="M 0,663.371 H 800 V 244.674 H 0 Z"
         id="path26"
         inkscape:connector-curvature="0" /></clipPath><clipPath
       clipPathUnits="userSpaceOnUse"
       id="clipPath44"><path
         d="M 0,557.351 H 800 V 235.104 H 0 Z"
         id="path42"
         inkscape:connector-curvature="0" /></clipPath><clipPath
       clipPathUnits="userSpaceOnUse"
       id="clipPath3132"><path
         d="M 49.8726,757.584 H 114.538 V 724.778 H 49.8726 Z"
         id="path3130"
         inkscape:connector-curvature="0" /></clipPath><clipPath
       clipPathUnits="userSpaceOnUse"
       id="clipPath3148"><path
         d="m 536.285,745.555 h 81.908 v -41.554 h -81.908 z"
         id="path3146"
         inkscape:connector-curvature="0" /></clipPath><clipPath
       clipPathUnits="userSpaceOnUse"
       id="clipPath3164"><path
         d="m 162.012,674.163 h 94.046 v -47.712 h -94.046 z"
         id="path3162"
         inkscape:connector-curvature="0" /></clipPath><clipPath
       clipPathUnits="userSpaceOnUse"
       id="clipPath3180"><path
         d="m 292.386,737.938 h 51.88 v -26.32 h -51.88 z"
         id="path3178"
         inkscape:connector-curvature="0" /></clipPath><clipPath
       clipPathUnits="userSpaceOnUse"
       id="clipPath3196"><path
         d="m 666.213,598.602 h 42.543 v -21.583 h -42.543 z"
         id="path3194"
         inkscape:connector-curvature="0" /></clipPath><clipPath
       clipPathUnits="userSpaceOnUse"
       id="clipPath3212"><path
         d="m 452.83,684.954 h 42.543 V 663.371 H 452.83 Z"
         id="path3210"
         inkscape:connector-curvature="0" /></clipPath><clipPath
       clipPathUnits="userSpaceOnUse"
       id="clipPath3228"><path
         d="m 242.692,582.598 h 42.543 v -21.583 h -42.543 z"
         id="path3226"
         inkscape:connector-curvature="0" /></clipPath><clipPath
       clipPathUnits="userSpaceOnUse"
       id="clipPath48064"><rect
         style="fill:#4e4639;fill-opacity:0.37142861;stroke:none;stroke-width:0.5958097;stroke-opacity:1"
         id="rect48066"
         width="883.87476"
         height="496.94061"
         x="-115.96565"
         y="-776.97284"
         transform="scale(1,-1)" /></clipPath><clipPath
       clipPathUnits="userSpaceOnUse"
       id="clipPath48068"><rect
         style="fill:#4e4639;fill-opacity:0.37142861;stroke:none;stroke-width:0.5958097;stroke-opacity:1"
         id="rect48070"
         width="883.87476"
         height="496.94061"
         x="70.189735"
         y="-735.79431"
         transform="scale(1,-1)" /></clipPath><clipPath
       clipPathUnits="userSpaceOnUse"
       id="clipPath48072"><rect
         style="fill:#4e4639;fill-opacity:0.37142861;stroke:none;stroke-width:0.5958097;stroke-opacity:1"
         id="rect48074"
         width="883.87476"
         height="496.94061"
         x="3.3053404e-014"
         y="-732.74408"
         transform="scale(1,-1)" /></clipPath><clipPath
       clipPathUnits="userSpaceOnUse"
       id="clipPath48076"><rect
         style="fill:#4e4639;fill-opacity:0.37142861;stroke:none;stroke-width:0.5958097;stroke-opacity:1"
         id="rect48078"
         width="883.87476"
         height="496.94061"
         x="-177.0038"
         y="-857.79254"
         transform="scale(1,-1)" /></clipPath><clipPath
       clipPathUnits="userSpaceOnUse"
       id="clipPath48080"><rect
         style="fill:#4e4639;fill-opacity:0.37142861;stroke:none;stroke-width:0.5958097;stroke-opacity:1"
         id="rect48082"
         width="883.87476"
         height="496.94061"
         x="-426.22464"
         y="-661.06293"
         transform="scale(1,-1)" /></clipPath><clipPath
       clipPathUnits="userSpaceOnUse"
       id="clipPath48084"><rect
         style="fill:#4e4639;fill-opacity:0.37142861;stroke:none;stroke-width:0.60246301;stroke-opacity:1"
         id="rect48086"
         width="857.2583"
         height="523.87683"
         x="-279.36282"
         y="-762.74573"
         transform="scale(1,-1)" /></clipPath><clipPath
       clipPathUnits="userSpaceOnUse"
       id="clipPath48088"><rect
         style="fill:#4e4639;fill-opacity:0.37142861;stroke:none;stroke-width:0.5958097;stroke-opacity:1"
         id="rect48090"
         width="883.87476"
         height="496.94061"
         x="-145.43967"
         y="-822.70837"
         transform="scale(1,-1)" /></clipPath><clipPath
       clipPathUnits="userSpaceOnUse"
       id="clipPath48092"><rect
         style="fill:#4e4639;fill-opacity:0.37142861;stroke:none;stroke-width:0.55751026;stroke-opacity:1"
         id="rect48094"
         width="800"
         height="480.72403"
         x="2.9916821e-014"
         y="-715.82849"
         transform="scale(1,-1)" /></clipPath><clipPath
       clipPathUnits="userSpaceOnUse"
       id="clipPath48096"><rect
         style="fill:#4e4639;fill-opacity:0.37142861;stroke:none;stroke-width:0.97092062;stroke-opacity:1"
         id="rect48098"
         width="1440"
         height="810"
         x="-6.2700346e-006"
         y="-1045.1514"
         transform="scale(1,-1)" /></clipPath><clipPath
       clipPathUnits="userSpaceOnUse"
       id="clipPath48100"><rect
         style="fill:#4e4639;fill-opacity:0.37142861;stroke:none;stroke-width:1.0052644;stroke-opacity:1"
         id="rect48102"
         width="1491.038"
         height="838.59448"
         x="-773.00201"
         y="-398.11404"
         transform="scale(1,-1)" /></clipPath></defs><sodipodi:namedview
     pagecolor="#ffffff"
     bordercolor="#666666"
     borderopacity="1"
     objecttolerance="10"
     gridtolerance="10"
     guidetolerance="10"
     inkscape:pageopacity="0"
     inkscape:pageshadow="2"
     inkscape:window-width="1920"
     inkscape:window-height="911"
     id="namedview4"
     showgrid="false"
     fit-margin-top="0"
     fit-margin-left="0"
     fit-margin-right="0"
     fit-margin-bottom="0"
     inkscape:zoom="0.45254834"
     inkscape:cx="719.2949"
     inkscape:cy="597.66132"
     inkscape:window-x="0"
     inkscape:window-y="0"
     inkscape:window-maximized="1"
     inkscape:current-layer="g10"
     showguides="true"
     inkscape:guide-bbox="true"
     inkscape:object-nodes="false"
     inkscape:snap-nodes="true"
     inkscape:snap-others="true"
     inkscape:snap-global="true"
     inkscape:measure-start="98.5876,27.6836"
     inkscape:measure-end="-1.41243,27.1186" /><g
     id="g10"
     inkscape:groupmode="layer"
     inkscape:label="Modern"
     transform="matrix(1.3333333,0,0,-1.3333333,8.3600461e-6,1393.0386)"><g
       id="g3122"
       transform="matrix(0.9657702,0,0,0.96590191,746.54228,660.61226)"
       clip-path="url(#clipPath48100)" /><path
       d="M -6.2700347e-6,235.15148 H 1440 V 1045.1515 H -6.2700347e-6 Z"
       style="fill:#001328;fill-opacity:1;fill-rule:nonzero;stroke:none;stroke-width:1.35000002"
       id="path12"
       inkscape:connector-curvature="0"
       clip-path="url(#clipPath48096)" /><g
       id="g14"
       transform="matrix(1.8,0,0,1.6849585,-6.2700347e-6,-160.98998)"
       clip-path="url(#clipPath48092)"><g
         id="g16"
         clip-path="url(#clipPath20)"><g
           id="g22"><g
             id="g24" /><g
             id="g36"><g
               clip-path="url(#clipPath28)"
               id="g34"
               style="opacity:0.14999402"><g
                 transform="translate(798.8945,616.3994)"
                 id="g32"><path
                   d="m 0,0 c -23.502,0 -42.553,-19.052 -42.553,-42.553 0,-3.312 0.391,-6.531 1.107,-9.626 -2.454,1.091 -5.165,1.71 -8.025,1.71 -10.332,0 -18.804,-7.922 -19.703,-18.021 -3.992,2.568 -8.74,4.064 -13.842,4.064 -14.152,0 -25.627,-11.474 -25.627,-25.627 0,-6.544 2.455,-12.511 6.492,-17.04 -7.65,-0.85 -13.771,-6.713 -15.037,-14.23 -4.175,3.518 -9.564,5.641 -15.451,5.641 -5.433,0 -10.443,-1.808 -14.465,-4.852 -2.9,5.415 -8.609,9.101 -15.182,9.101 -9.508,0 -17.216,-7.708 -17.216,-17.216 0,-0.063 0.009,-0.124 0.01,-0.188 -0.849,0.111 -1.707,0.188 -2.586,0.188 -7.881,0 -14.666,-4.618 -17.85,-11.286 -4.936,4.547 -11.525,7.327 -18.765,7.327 -15.303,0 -27.709,-12.406 -27.709,-27.708 0,-4.336 0.998,-8.438 2.773,-12.092 -0.909,0.127 -1.83,0.216 -2.773,0.216 -10.931,0 -19.792,-8.862 -19.792,-19.792 0,-5.043 1.901,-9.631 5.007,-13.126 -5.746,-2.129 -10.241,-6.83 -12.051,-12.723 -4.592,4.777 -11.041,7.756 -18.192,7.756 -3.472,0 -6.78,-0.702 -9.791,-1.971 -5.871,5.745 -13.902,9.291 -22.764,9.291 -6.7,0 -12.924,-2.025 -18.1,-5.494 -4.415,2.973 -9.731,4.708 -15.454,4.708 -2.845,0 -5.59,-0.431 -8.173,-1.227 -1.819,13.542 -13.413,23.988 -27.453,23.988 -15.304,0 -27.709,-12.406 -27.709,-27.709 0,-1.347 0.101,-2.67 0.287,-3.965 -0.096,10e-4 -0.191,0.007 -0.287,0.007 -2.878,0 -5.654,-0.44 -8.264,-1.254 0.446,1.665 0.705,3.405 0.705,5.211 0,8.963 -5.856,16.55 -13.946,19.168 0.009,0.328 0.025,0.655 0.025,0.986 0,17.978 -14.576,32.553 -32.556,32.553 -8.862,0 -16.894,-3.546 -22.764,-9.291 -3.011,1.268 -6.319,1.971 -9.791,1.971 -7.15,0 -13.6,-2.979 -18.192,-7.756 -1.81,5.892 -6.305,10.593 -12.051,12.722 3.105,3.495 5.007,8.083 5.007,13.126 0,10.931 -8.861,19.792 -19.792,19.792 -0.944,0 -1.864,-0.089 -2.773,-0.216 1.776,3.654 2.773,7.756 2.773,12.092 0,15.303 -12.405,27.709 -27.709,27.709 -7.24,0 -13.829,-2.78 -18.765,-7.327 -3.184,6.668 -9.969,11.286 -17.85,11.286 -0.878,0 -1.737,-0.077 -2.585,-0.188 0,0.063 0.009,0.124 0.009,0.188 0,9.508 -7.708,17.216 -17.216,17.216 -6.573,0 -12.282,-3.686 -15.182,-9.102 -4.022,3.045 -9.032,4.853 -14.465,4.853 -5.888,0 -11.276,-2.123 -15.451,-5.641 -1.266,7.517 -7.387,13.379 -15.037,14.229 4.036,4.529 6.492,10.497 6.492,17.04 0,14.154 -11.475,25.628 -25.628,25.628 -5.1,0 -9.849,-1.496 -13.842,-4.065 -0.897,10.1 -9.37,18.021 -19.702,18.021 -2.86,0 -5.57,-0.618 -8.025,-1.709 0.717,3.094 1.107,6.313 1.107,9.625 0,23.502 -19.052,42.554 -42.553,42.554 v -415.98 c 0.215,-1.771 0.331,-2.718 0.331,-2.718 H 1.105 v 286.648 85.05 C 0.737,-0.019 0.371,0 0,0"
                   style="fill:#fff6e9;fill-opacity:1;fill-rule:nonzero;stroke:none"
                   id="path30"
                   inkscape:connector-curvature="0" /></g></g></g></g><g
           id="g38"><g
             id="g40" /><g
             id="g52"><g
               clip-path="url(#clipPath44)"
               id="g50"
               style="opacity:0.14999402"><g
                 transform="translate(800,557.2686)"
                 id="g48"><path
                   d="m 0,0 c -18.267,-1.177 -32.72,-16.356 -32.72,-34.92 0,-2.693 0.315,-5.312 0.891,-7.831 -2.594,1.322 -5.523,2.084 -8.634,2.084 -10.524,0 -19.055,-8.531 -19.055,-19.055 0,-0.369 0.035,-0.731 0.055,-1.095 -2.394,0.71 -4.927,1.096 -7.553,1.096 -14.662,0 -26.548,-11.889 -26.548,-26.552 0,-9.326 4.811,-17.524 12.086,-22.26 -5.428,-2.439 -9.214,-7.881 -9.214,-14.216 0,-0.083 0.011,-0.163 0.012,-0.246 -0.943,0.146 -1.902,0.246 -2.885,0.246 -4.558,0 -8.728,-1.647 -11.96,-4.373 -3.234,2.726 -7.403,4.373 -11.962,4.373 -10.259,0 -18.577,-8.318 -18.577,-18.576 0,-4.06 1.317,-7.804 3.527,-10.862 -3.661,-2.251 -6.478,-5.725 -7.879,-9.865 -2.101,1.054 -4.463,1.66 -6.974,1.66 -7.967,0 -14.528,-5.984 -15.461,-13.702 -4.861,5.43 -11.922,8.851 -19.785,8.851 -14.662,0 -26.55,-11.89 -26.55,-26.552 0,-3.994 0.887,-7.779 2.468,-11.179 -0.806,0.129 -1.626,0.215 -2.469,0.215 -7.746,0 -14.155,-5.658 -15.364,-13.062 -3.716,2.725 -8.302,4.34 -13.265,4.34 -7.781,0 -14.635,-3.961 -18.664,-9.973 -3.136,3.047 -7.41,4.932 -12.128,4.932 -9.615,0 -17.412,-7.797 -17.412,-17.413 0,-1.443 0.196,-2.84 0.528,-4.181 -2.817,1.957 -6.233,3.112 -9.922,3.112 -9.614,0 -17.412,-7.796 -17.412,-17.412 h -10e-4 c -12.277,0 -22.622,-8.262 -25.795,-19.525 -5.32,6.757 -13.567,11.103 -22.836,11.103 -16.046,0 -29.054,-13.009 -29.054,-29.054 0,-0.418 0.021,-0.831 0.039,-1.244 -1.913,0.8 -4.011,1.244 -6.214,1.244 -0.597,0 -1.183,-0.044 -1.763,-0.107 -0.58,0.063 -1.165,0.107 -1.762,0.107 -2.204,0 -4.302,-0.444 -6.216,-1.244 0.019,0.413 0.039,0.826 0.039,1.244 0,16.045 -13.007,29.054 -29.053,29.054 -9.268,0 -17.516,-4.346 -22.835,-11.103 -3.174,11.263 -13.518,19.525 -25.796,19.525 h -0.001 c 0,9.616 -7.797,17.412 -17.412,17.412 -3.69,0 -7.105,-1.155 -9.922,-3.112 0.332,1.341 0.528,2.738 0.528,4.181 0,9.616 -7.797,17.413 -17.411,17.413 -4.719,0 -8.993,-1.885 -12.128,-4.932 -4.029,6.012 -10.884,9.973 -18.665,9.973 -4.964,0 -9.548,-1.615 -13.266,-4.34 -1.208,7.404 -7.617,13.062 -15.363,13.062 -0.843,0 -1.662,-0.086 -2.469,-0.215 1.58,3.4 2.468,7.185 2.468,11.179 0,14.662 -11.888,26.552 -26.55,26.552 -7.863,0 -14.924,-3.421 -19.785,-8.851 -0.933,7.718 -7.493,13.702 -15.461,13.702 -2.51,0 -4.873,-0.606 -6.973,-1.66 -1.402,4.14 -4.219,7.614 -7.879,9.865 2.209,3.058 3.527,6.802 3.527,10.862 0,10.258 -8.319,18.576 -18.578,18.576 -4.559,0 -8.729,-1.647 -11.961,-4.373 -3.232,2.726 -7.402,4.373 -11.96,4.373 -0.984,0 -1.943,-0.1 -2.886,-0.246 10e-4,0.083 0.012,0.163 0.012,0.246 0,6.335 -3.786,11.777 -9.214,14.216 7.275,4.736 12.088,12.934 12.088,22.26 0,14.663 -11.889,26.552 -26.55,26.552 -2.625,0 -5.159,-0.386 -7.554,-1.096 0.021,0.364 0.056,0.726 0.056,1.095 0,10.524 -8.532,19.055 -19.055,19.055 -3.111,0 -6.04,-0.762 -8.634,-2.084 0.576,2.519 0.89,5.138 0.89,7.831 0,19.332 -15.67,35.002 -35.001,35.002 -0.275,0 -0.545,-0.015 -0.818,-0.02 v -322.226 h 399.788 3.525 H 0 Z"
                   style="fill:#fff6e9;fill-opacity:1;fill-rule:nonzero;stroke:none"
                   id="path46"
                   inkscape:connector-curvature="0" /></g></g></g></g></g></g><g
       id="g3126"
       transform="matrix(1.6291901,0,0,1.6299735,236.94885,-295.8415)"
       clip-path="url(#clipPath48088)"><g
         id="g3128" /><g
         id="g3140"><g
           clip-path="url(#clipPath3132)"
           id="g3138"
           style="opacity:0.08000183"><g
             transform="translate(108.5337,736.7861)"
             id="g3136"><path
               d="m 0,0 c -0.366,0 -0.722,-0.038 -1.069,-0.1 -0.621,4.239 -4.262,7.497 -8.674,7.497 -1.136,0 -2.219,-0.223 -3.216,-0.616 0.01,0.206 0.031,0.408 0.031,0.616 0,7.401 -5.999,13.401 -13.401,13.401 -7.401,0 -13.4,-6 -13.4,-13.401 0,-0.208 0.021,-0.41 0.03,-0.616 -0.996,0.393 -2.079,0.616 -3.215,0.616 -4.412,0 -8.053,-3.258 -8.674,-7.497 -0.348,0.062 -0.704,0.1 -1.069,0.1 -3.316,0 -6.004,-2.688 -6.004,-6.004 0,-3.316 2.688,-6.004 6.004,-6.004 H 0 c 3.316,0 6.004,2.688 6.004,6.004 C 6.004,-2.688 3.316,0 0,0"
               style="fill:#fff6e9;fill-opacity:1;fill-rule:nonzero;stroke:none"
               id="path3134"
               inkscape:connector-curvature="0" /></g></g></g></g><g
       id="g3142"
       transform="matrix(1.6797738,0,0,1.546165,469.26636,-134.17934)"
       clip-path="url(#clipPath48084)"><g
         id="g3144" /><g
         id="g3156"><g
           clip-path="url(#clipPath3148)"
           id="g3154"
           style="opacity:0.19999701"><g
             transform="translate(610.5889,719.2104)"
             id="g3152"><path
               d="m -31.37578,19.644838 c -9.376,0 -16.974,-7.6 -16.974,-16.974 0,-0.264 0.027,-0.52 0.038,-0.781 -1.262,0.498 -2.633,0.781 -4.072,0.781 -5.589,0 -10.201,-4.127 -10.987,-9.4970003 -0.44,0.08 -0.89,0.127 -1.354,0.127 -4.199,0 -7.606,-3.4049997 -7.606,-7.6049997 0,-4.2 36.458434,-5.996201 40.657434,-5.996201"
               style="fill:#fff6e9;fill-opacity:1;fill-rule:nonzero;stroke:none"
               id="path3150"
               inkscape:connector-curvature="0"
               sodipodi:nodetypes="cscscssc" /></g></g></g></g><g
       id="g3158"
       transform="matrix(1.6291901,0,0,1.6299735,694.40097,-32.363702)"
       clip-path="url(#clipPath48080)"><g
         id="g3160" /><g
         id="g3172"><g
           clip-path="url(#clipPath3164)"
           id="g3170"
           style="opacity:0.19999701"><g
             transform="translate(247.3271,643.9146)"
             id="g3168"><path
               d="m 0,0 c -0.532,0 -1.05,-0.055 -1.554,-0.146 -0.904,6.166 -6.199,10.904 -12.617,10.904 -1.651,0 -3.226,-0.324 -4.677,-0.896 0.015,0.3 0.046,0.594 0.046,0.896 0,10.763 -8.727,19.49 -19.489,19.49 -10.765,0 -19.49,-8.727 -19.49,-19.49 0,-0.302 0.032,-0.596 0.043,-0.896 -1.448,0.572 -3.022,0.896 -4.675,0.896 -6.417,0 -11.712,-4.738 -12.614,-10.904 C -75.533,-0.055 -76.05,0 -76.582,0 c -4.821,0 -8.733,-3.909 -8.733,-8.732 0,-4.822 3.912,-8.731 8.733,-8.731 H 0 c 4.822,0 8.731,3.909 8.731,8.731 C 8.731,-3.909 4.822,0 0,0"
               style="fill:#fff6e9;fill-opacity:1;fill-rule:nonzero;stroke:none"
               id="path3166"
               inkscape:connector-curvature="0" /></g></g></g></g><g
       id="g3174"
       transform="matrix(1.6291901,0,0,1.6299735,288.37283,-353.02771)"
       clip-path="url(#clipPath48076)"><g
         id="g3176" /><g
         id="g3188"><g
           clip-path="url(#clipPath3180)"
           id="g3186"
           style="opacity:0.08000183"><g
             transform="translate(339.4497,721.252)"
             id="g3184"><path
               d="m 0,0 c -0.293,0 -0.579,-0.03 -0.857,-0.081 -0.499,3.402 -3.42,6.016 -6.96,6.016 -0.912,0 -1.78,-0.179 -2.58,-0.495 0.008,0.165 0.025,0.328 0.025,0.495 0,5.937 -4.814,10.751 -10.751,10.751 -5.939,0 -10.752,-4.814 -10.752,-10.751 0,-0.167 0.018,-0.33 0.024,-0.495 -0.798,0.316 -1.667,0.495 -2.579,0.495 -3.54,0 -6.461,-2.614 -6.958,-6.016 C -41.667,-0.03 -41.953,0 -42.246,0 c -2.66,0 -4.817,-2.157 -4.817,-4.817 0,-2.66 2.157,-4.817 4.817,-4.817 H 0 c 2.66,0 4.816,2.157 4.816,4.817 C 4.816,-2.157 2.66,0 0,0"
               style="fill:#fff6e9;fill-opacity:1;fill-rule:nonzero;stroke:none"
               id="path3182"
               inkscape:connector-curvature="0" /></g></g></g></g><g
       id="g3190"
       transform="matrix(1.6291901,0,0,1.6299735,-6.2700347e-6,-149.20205)"
       clip-path="url(#clipPath48072)"><g
         id="g3192" /><g
         id="g3204"><g
           clip-path="url(#clipPath3196)"
           id="g3202"
           style="opacity:0.19999701"><g
             transform="translate(704.8066,584.9189)"
             id="g3200"><path
               d="m 0,0 c -0.241,0 -0.476,-0.025 -0.703,-0.066 -0.409,2.789 -2.805,4.933 -5.708,4.933 -0.747,0 -1.459,-0.147 -2.115,-0.406 0.005,0.136 0.02,0.268 0.02,0.406 0,4.868 -3.948,8.816 -8.816,8.816 -4.869,0 -8.816,-3.948 -8.816,-8.816 0,-0.138 0.015,-0.27 0.019,-0.406 -0.654,0.259 -1.367,0.406 -2.114,0.406 -2.904,0 -5.299,-2.144 -5.706,-4.933 -0.229,0.041 -0.463,0.066 -0.705,0.066 -2.18,0 -3.95,-1.769 -3.95,-3.95 0,-2.181 1.77,-3.95 3.95,-3.95 L 0,-7.9 c 2.181,0 3.949,1.769 3.949,3.95 C 3.949,-1.769 2.181,0 0,0"
               style="fill:#fff6e9;fill-opacity:1;fill-rule:nonzero;stroke:none"
               id="path3198"
               inkscape:connector-curvature="0" /></g></g></g></g><g
       id="g3206"
       transform="matrix(1.6291901,0,0,1.6299735,-114.35243,-154.17389)"
       clip-path="url(#clipPath48068)"><g
         id="g3208" /><g
         id="g3220"><g
           clip-path="url(#clipPath3212)"
           id="g3218"
           style="opacity:0.08000183"><g
             transform="translate(491.4238,671.271)"
             id="g3216"><path
               d="m 0,0 c -0.241,0 -0.476,-0.025 -0.703,-0.066 -0.409,2.789 -2.805,4.933 -5.708,4.933 -0.747,0 -1.459,-0.147 -2.115,-0.406 0.005,0.136 0.02,0.268 0.02,0.406 0,4.868 -3.948,8.816 -8.816,8.816 -4.869,0 -8.816,-3.948 -8.816,-8.816 0,-0.138 0.015,-0.27 0.019,-0.406 -0.654,0.259 -1.367,0.406 -2.114,0.406 -2.904,0 -5.299,-2.144 -5.706,-4.933 -0.229,0.041 -0.463,0.066 -0.705,0.066 -2.18,0 -3.95,-1.769 -3.95,-3.95 0,-2.181 1.77,-3.95 3.95,-3.95 L 0,-7.9 c 2.181,0 3.949,1.769 3.949,3.95 C 3.949,-1.769 2.181,0 0,0"
               style="fill:#fff6e9;fill-opacity:1;fill-rule:nonzero;stroke:none"
               id="path3214"
               inkscape:connector-curvature="0" /></g></g></g></g><g
       id="g3222"
       transform="matrix(1.6291901,0,0,1.6299735,188.93009,-221.2938)"
       clip-path="url(#clipPath48064)"><g
         id="g3224" /><g
         id="g3236"><g
           clip-path="url(#clipPath3228)"
           id="g3234"
           style="opacity:0.08000183"><g
             transform="translate(281.2861,568.915)"
             id="g3232"><path
               d="m 0,0 c -0.241,0 -0.476,-0.025 -0.703,-0.066 -0.409,2.789 -2.805,4.933 -5.708,4.933 -0.747,0 -1.459,-0.147 -2.115,-0.406 0.005,0.136 0.02,0.268 0.02,0.406 0,4.868 -3.948,8.816 -8.816,8.816 -4.869,0 -8.816,-3.948 -8.816,-8.816 0,-0.138 0.015,-0.27 0.019,-0.406 -0.654,0.259 -1.367,0.406 -2.114,0.406 -2.904,0 -5.299,-2.144 -5.706,-4.933 -0.229,0.041 -0.463,0.066 -0.705,0.066 -2.18,0 -3.95,-1.769 -3.95,-3.95 0,-2.181 1.77,-3.95 3.95,-3.95 L 0,-7.9 c 2.181,0 3.949,1.769 3.949,3.95 C 3.949,-1.769 2.181,0 0,0"
               style="fill:#fff6e9;fill-opacity:1;fill-rule:nonzero;stroke:none"
               id="path3230"
               inkscape:connector-curvature="0" /></g></g></g></g></g></svg>