<?xml version="1.0" encoding="UTF-8" standalone="no"?>
<!-- Created with Inkscape (http://www.inkscape.org/) -->

<svg
   xmlns:dc="http://purl.org/dc/elements/1.1/"
   xmlns:cc="http://creativecommons.org/ns#"
   xmlns:rdf="http://www.w3.org/1999/02/22-rdf-syntax-ns#"
   xmlns:svg="http://www.w3.org/2000/svg"
   xmlns="http://www.w3.org/2000/svg"
   xmlns:sodipodi="http://sodipodi.sourceforge.net/DTD/sodipodi-0.dtd"
   xmlns:inkscape="http://www.inkscape.org/namespaces/inkscape"
   width="640"
   height="360"
   viewBox="0 0 169.33333 95.250003"
   version="1.1"
   id="svg5991"
   inkscape:version="0.92.1 r15371"
   sodipodi:docname="header-text-ru.svg">
  <defs
     id="defs5985" />
  <sodipodi:namedview
     id="base"
     pagecolor="#ffffff"
     bordercolor="#666666"
     borderopacity="1.0"
     inkscape:pageopacity="0.0"
     inkscape:pageshadow="2"
     inkscape:zoom="1.979899"
     inkscape:cx="349.46115"
     inkscape:cy="196.88707"
     inkscape:document-units="px"
     inkscape:current-layer="layer1"
     showgrid="false"
     units="px"
     inkscape:window-width="1366"
     inkscape:window-height="703"
     inkscape:window-x="0"
     inkscape:window-y="0"
     inkscape:window-maximized="1"
     showguides="true"
     inkscape:guide-bbox="true"
     inkscape:snap-global="false">
    <sodipodi:guide
       position="0,47.625"
       orientation="0,1"
       id="guide6583"
       inkscape:locked="false"
       inkscape:label=""
       inkscape:color="rgb(0,0,255)" />
    <sodipodi:guide
       position="84.666667,59.333837"
       orientation="1,0"
       id="guide6585"
       inkscape:locked="false"
       inkscape:label=""
       inkscape:color="rgb(0,0,255)" />
    <sodipodi:guide
       position="89.958334,89.958334"
       orientation="1,0"
       id="guide6591"
       inkscape:locked="false"
       inkscape:label=""
       inkscape:color="rgb(0,0,255)" />
    <sodipodi:guide
       position="79.375,83.922659"
       orientation="1,0"
       id="guide6593"
       inkscape:locked="false"
       inkscape:label=""
       inkscape:color="rgb(0,0,255)" />
  </sodipodi:namedview>
  <metadata
     id="metadata5988">
    <rdf:RDF>
      <cc:Work
         rdf:about="">
        <dc:format>image/svg+xml</dc:format>
        <dc:type
           rdf:resource="http://purl.org/dc/dcmitype/StillImage" />
        <dc:title />
      </cc:Work>
    </rdf:RDF>
  </metadata>
  <g
     inkscape:label="Layer 1"
     inkscape:groupmode="layer"
     id="layer1"
     transform="translate(0,-201.74998)">
    <g
       id="g5855"
       transform="matrix(0.18898959,0,0,0.18898959,18.714101,236.14486)"
       style="fill:#ffffff;fill-opacity:0.8423423;stroke:#000000;stroke-width:1.39998889;stroke-miterlimit:4;stroke-dasharray:none;stroke-opacity:0.11764706">
      <path
         d="M 44.360916,29.079919"
         id="path9"
         inkscape:connector-curvature="0"
         style="fill:#ffffff;fill-opacity:0.8423423;stroke:#000000;stroke-width:1.39998889;stroke-miterlimit:4;stroke-dasharray:none;stroke-opacity:0.11764706" />
      <path
         d="m 41.819262,64.048589 c -0.204843,1.998207 -0.309758,4.02526 -0.309758,6.077378 0,32.834063 26.836901,59.450113 59.943596,59.450113 19.01217,0 35.95677,-8.77809 46.93777,-22.47005 l 13.33865,-0.0759 c -12.5191,19.67373 -34.71908,32.75139 -60.01797,32.75139 -39.099853,0 -70.795715,-31.24251 -70.795715,-69.781149 0,-2.017292 0.0871,-4.014267 0.25739,-5.988905 l 10.646037,0.03711"
         id="path11"
         inkscape:connector-curvature="0"
         style="fill:#ffffff;fill-opacity:0.8423423;stroke:#000000;stroke-width:1.39998889;stroke-miterlimit:4;stroke-dasharray:none;stroke-opacity:0.11764706" />
      <path
         d="M 41.819262,64.048589"
         id="path13"
         inkscape:connector-curvature="0"
         style="fill:#ffffff;fill-opacity:0.8423423;stroke:#000000;stroke-width:1.39998889;stroke-miterlimit:4;stroke-dasharray:none;stroke-opacity:0.11764706" />
      <path
         d="M 57.914474,29.266187 C 68.841056,17.820798 84.306421,10.681919 101.45319,10.681919 c 32.50499,0 58.96872,25.656308 59.91687,57.662186 l 11.11843,0.05365 C 171.62494,30.601638 140.26849,0.22125494 101.71164,0.22125494 78.121504,0.22125494 57.226558,11.594 44.361005,29.079831 Z"
         id="path15"
         inkscape:connector-curvature="0"
         style="fill:#ffffff;fill-opacity:0.8423423;stroke:#000000;stroke-width:1.39998889;stroke-miterlimit:4;stroke-dasharray:none;stroke-opacity:0.11764706" />
      <path
         d="m 183.24265,80.565407 c -0.54423,0 -1.07942,0.03924 -1.60488,0.108358 -1.89487,-6.395193 -7.81183,-11.062219 -14.82176,-11.062219 -6.37886,0 -11.8537,3.863719 -14.21604,9.378159 -1.39441,-0.554639 -2.91351,-0.863043 -4.50553,-0.863043 -4.90562,0 -9.13262,2.897529 -11.06951,7.072777 -1.28328,-0.603608 -2.71589,-0.942921 -4.22839,-0.942921 -4.24088,0 -7.85941,2.65546 -9.28995,6.393457 -0.95125,-0.436558 -2.00565,-0.686266 -3.12049,-0.686266 -4.14225,0 -7.49996,3.3577 -7.49996,7.499957 0,4.142254 3.35771,7.499954 7.49996,7.499954 h 62.85655 c 6.73728,0 12.19927,-5.461636 12.19927,-12.198929 0,-6.737635 -5.46199,-12.199284 -12.19927,-12.199284"
         style="fill:#ffffff;fill-opacity:0.8423423;fill-rule:nonzero;stroke:#000000;stroke-width:1.39998889;stroke-miterlimit:4;stroke-dasharray:none;stroke-opacity:0.11764706"
         id="path60"
         inkscape:connector-curvature="0" />
      <path
         sodipodi:nodetypes="ccscscsssssc"
         d="m 65.438834,43.143941 c -1.355393,0 -2.633801,0.315397 -3.780225,0.862408 -0.448997,-7.323022 -6.527583,-13.124376 -13.9635,-13.124376 -1.791452,0 -3.502029,0.340304 -5.076107,0.953629 -2.323257,-5.879963 -8.053443,-10.041903 -14.759585,-10.041903 -8.570373,0 -15.549529,6.795421 -15.853612,15.291718 -0.0047,0 -0.0097,-3.23e-4 -0.01459,-3.23e-4 -6.5330746,0 -11.82947319,5.296074 -11.82947319,11.829148 0,6.533074 5.29639859,11.829153 11.82947319,11.829153 h 53.447579 c 4.860019,0 8.799731,-3.939712 8.799731,-8.799728 0,-4.860019 -3.939712,-8.799726 -8.799731,-8.799726"
         style="fill:#ffffff;fill-opacity:0.8423423;fill-rule:nonzero;stroke:#000000;stroke-width:1.39998889;stroke-miterlimit:4;stroke-dasharray:none;stroke-opacity:0.11764706"
         id="path28"
         inkscape:connector-curvature="0" />
    </g>
    <text
       xml:space="preserve"
       style="font-style:normal;font-weight:normal;font-size:11.71981239px;line-height:1.25;font-family:sans-serif;letter-spacing:0px;word-spacing:0px;fill:#ffffff;fill-opacity:0.84313725;stroke:#000000;stroke-width:0.29299536;stroke-miterlimit:4;stroke-dasharray:none;stroke-opacity:0.11764706"
       x="61.074677"
       y="247.28006"
       id="text5892"
       transform="scale(1.0030336,0.99697557)"><tspan
         sodipodi:role="line"
         x="61.074677"
         y="247.28006"
         style="font-style:normal;font-variant:normal;font-weight:normal;font-stretch:normal;font-size:7.0117135px;line-height:0;font-family:'Droid Serif';-inkscape-font-specification:'Droid Serif';letter-spacing:0.29215473px;fill:#ffffff;fill-opacity:0.84313725;stroke:#000000;stroke-width:0.29299536;stroke-miterlimit:4;stroke-dasharray:none;stroke-opacity:0.11764706"
         id="tspan5939">Александр Кислов</tspan><tspan
         sodipodi:role="line"
         x="61.074677"
         y="261.92984"
         style="font-style:normal;font-variant:normal;font-weight:normal;font-stretch:normal;font-size:7.0117135px;line-height:0;font-family:'Droid Serif';-inkscape-font-specification:'Droid Serif';letter-spacing:0.29215473px;fill:#ffffff;fill-opacity:0.84313725;stroke:#000000;stroke-width:0.29299536;stroke-miterlimit:4;stroke-dasharray:none;stroke-opacity:0.11764706"
         id="tspan5943" /></text>
    <text
       xml:space="preserve"
       style="font-style:normal;font-weight:normal;font-size:11.89844418px;line-height:1.25;font-family:sans-serif;letter-spacing:1.19081831px;word-spacing:0px;fill:#ffffff;fill-opacity:0.84313725;stroke:#000000;stroke-width:0.29746106;stroke-miterlimit:4;stroke-dasharray:none;stroke-opacity:0.11764706"
       x="60.417614"
       y="260.03403"
       id="text5963"
       transform="scale(1.0080165,0.99204726)"><tspan
         sodipodi:role="line"
         id="tspan5961"
         x="60.417614"
         y="260.03403"
         style="font-style:normal;font-variant:normal;font-weight:normal;font-stretch:normal;font-size:9.51875687px;font-family:'Droid Serif';-inkscape-font-specification:'Droid Serif';letter-spacing:0.29739583px;fill:#ffffff;fill-opacity:0.84313725;stroke:#000000;stroke-width:0.29746106;stroke-miterlimit:4;stroke-dasharray:none;stroke-opacity:0.11764706">ПОРТФОЛИО</tspan></text>
  </g>
</svg>
