<?xml version="1.0" encoding="UTF-8" standalone="no"?>
<!-- Created with Inkscape (http://www.inkscape.org/) -->

<svg
   xmlns:dc="http://purl.org/dc/elements/1.1/"
   xmlns:cc="http://creativecommons.org/ns#"
   xmlns:rdf="http://www.w3.org/1999/02/22-rdf-syntax-ns#"
   xmlns:svg="http://www.w3.org/2000/svg"
   xmlns="http://www.w3.org/2000/svg"
   xmlns:sodipodi="http://sodipodi.sourceforge.net/DTD/sodipodi-0.dtd"
   xmlns:inkscape="http://www.inkscape.org/namespaces/inkscape"
   height="240"
   width="320"
   version="1.1"
   viewBox="0 0 84.666665 63.5"
   id="svg4613"
   sodipodi:docname="header-text-sm-screens.svg"
   inkscape:version="0.92.1 r15371">
  <defs
     id="defs4617" />
  <sodipodi:namedview
     pagecolor="#ffffff"
     bordercolor="#666666"
     borderopacity="1"
     objecttolerance="10"
     gridtolerance="10"
     guidetolerance="10"
     inkscape:pageopacity="0"
     inkscape:pageshadow="2"
     inkscape:window-width="1920"
     inkscape:window-height="911"
     id="namedview4615"
     showgrid="false"
     inkscape:zoom="1.4102852"
     inkscape:cx="225.73648"
     inkscape:cy="59.813499"
     inkscape:window-x="0"
     inkscape:window-y="0"
     inkscape:window-maximized="1"
     inkscape:current-layer="svg4613"
     showguides="true"
     inkscape:guide-bbox="true">
    <sodipodi:guide
       position="44.979166,60.973189"
       orientation="1,0"
       id="guide4684"
       inkscape:locked="false"
       inkscape:label=""
       inkscape:color="rgb(0,0,255)" />
    <sodipodi:guide
       position="107.1252,31.75"
       orientation="0,1"
       id="guide4686"
       inkscape:locked="false"
       inkscape:label=""
       inkscape:color="rgb(0,0,255)" />
  </sodipodi:namedview>
  <metadata
     id="metadata4585">
    <rdf:RDF>
      <cc:Work
         rdf:about="">
        <dc:format>image/svg+xml</dc:format>
        <dc:type
           rdf:resource="http://purl.org/dc/dcmitype/StillImage" />
        <dc:title></dc:title>
      </cc:Work>
    </rdf:RDF>
  </metadata>
  <g
     style="fill:#ffffff;fill-opacity:0.84233997;stroke:#000000;stroke-width:1.39999998;stroke-opacity:0.11764999"
     id="g4599"
     transform="matrix(0.14159,0,0,0.14159,31.075586,9.9534738)">
    <path
       inkscape:connector-curvature="0"
       id="path4587"
       d="M 44.361,29.08" />
    <path
       inkscape:connector-curvature="0"
       id="path4589"
       d="m 41.819,64.049 c -0.20484,1.9982 -0.30976,4.0253 -0.30976,6.0774 0,32.834 26.837,59.45 59.944,59.45 19.012,0 35.957,-8.7781 46.938,-22.47 l 13.339,-0.0759 c -12.519,19.674 -34.719,32.751 -60.018,32.751 -39.1,0 -70.796,-31.243 -70.796,-69.781 0,-2.0173 0.0871,-4.0143 0.25739,-5.9889 l 10.646,0.03711" />
    <path
       inkscape:connector-curvature="0"
       id="path4591"
       d="M 41.819,64.049" />
    <path
       inkscape:connector-curvature="0"
       id="path4593"
       d="M 57.914,29.266 C 68.841,17.821 84.306,10.682 101.45,10.682 c 32.505,0 58.969,25.656 59.917,57.662 l 11.118,0.05365 c -0.87,-37.796 -32.22,-68.177 -70.78,-68.177 -23.588,2.5e-4 -44.483,11.373 -57.349,28.859 z" />
    <path
       inkscape:connector-curvature="0"
       id="path4595"
       d="m 183.24,80.565 c -0.54423,0 -1.0794,0.03924 -1.6049,0.10836 -1.8949,-6.3952 -7.8118,-11.062 -14.822,-11.062 -6.3789,0 -11.854,3.8637 -14.216,9.3782 -1.3944,-0.55464 -2.9135,-0.86304 -4.5055,-0.86304 -4.9056,0 -9.1326,2.8975 -11.07,7.0728 -1.2833,-0.60361 -2.7159,-0.94292 -4.2284,-0.94292 -4.2409,0 -7.8594,2.6555 -9.29,6.3935 -0.95125,-0.43656 -2.0056,-0.68627 -3.1205,-0.68627 -4.1422,0 -7.5,3.3577 -7.5,7.5 0,4.1423 3.3577,7.5 7.5,7.5 h 62.857 c 6.7373,0 12.199,-5.4616 12.199,-12.199 0,-6.7376 -5.462,-12.199 -12.199,-12.199" />
    <path
       inkscape:connector-curvature="0"
       id="path4597"
       d="m 65.439,43.144 c -1.3554,0 -2.6338,0.3154 -3.7802,0.86241 -0.449,-7.323 -6.5276,-13.124 -13.964,-13.124 -1.7915,0 -3.502,0.3403 -5.0761,0.95363 -2.3233,-5.88 -8.0534,-10.042 -14.76,-10.042 -8.5704,0 -15.55,6.7954 -15.854,15.292 -0.0047,0 -0.0097,-3.23e-4 -0.01459,-3.23e-4 -6.5331,0 -11.829,5.2961 -11.829,11.829 0,6.5331 5.2964,11.829 11.829,11.829 h 53.448 c 4.86,0 8.7997,-3.9397 8.7997,-8.7997 0,-4.86 -3.9397,-8.7997 -8.7997,-8.7997" />
  </g>
  <text
     id="text4605"
     x="65.893547"
     y="38.982479"
     font-size="4.7573px"
     line-height="1.25"
     transform="scale(1.0030146,0.99699447)"
     xml:space="preserve"
     style="font-size:4.75723076px;line-height:1.25;font-family:Georgia;letter-spacing:0px;word-spacing:0px;fill:#ffffff;fill-opacity:0.84314001;stroke:#000000;stroke-width:0.19878711;stroke-opacity:0.11764999"><tspan
       id="tspan4601"
       x="45.002808"
       y="38.982479"
       line-height="0"
       style="line-height:0;text-align:center;letter-spacing:0.39643425px;text-anchor:middle;stroke-width:0.19878711">Alexander Kislov</tspan></text>
  <text
     id="text4609"
     x="65.63826"
     y="47.69672"
     font-size="8.9141px"
     line-height="1.25"
     transform="scale(1.0080069,0.99205671)"
     xml:space="preserve"
     style="font-size:8.91403866px;line-height:1.25;font-family:sans-serif;letter-spacing:0.89213389px;word-spacing:0px;fill:#ffffff;fill-opacity:0.84314001;stroke:#000000;stroke-width:0.22284847;stroke-opacity:0.11764999"><tspan
       id="tspan4607"
       x="44.521599"
       y="47.69672"
       font-size="7.1313px"
       style="font-size:7.13125134px;font-family:Georgia;text-align:center;letter-spacing:0.22279848px;text-anchor:middle;fill:#ffffff;fill-opacity:0.84314001;stroke:#000000;stroke-width:0.22284847;stroke-opacity:0.11764999">PORTFOLIO</tspan></text>
</svg>
