<?xml version="1.0" encoding="UTF-8" standalone="no"?>
<!-- Created with Inkscape (http://www.inkscape.org/) -->

<svg
   xmlns:dc="http://purl.org/dc/elements/1.1/"
   xmlns:cc="http://creativecommons.org/ns#"
   xmlns:rdf="http://www.w3.org/1999/02/22-rdf-syntax-ns#"
   xmlns:svg="http://www.w3.org/2000/svg"
   xmlns="http://www.w3.org/2000/svg"
   xmlns:sodipodi="http://sodipodi.sourceforge.net/DTD/sodipodi-0.dtd"
   xmlns:inkscape="http://www.inkscape.org/namespaces/inkscape"
   height="360"
   width="640"
   version="1.1"
   viewBox="0 0 169.33333 95.250003"
   id="svg4788"
   sodipodi:docname="header-text.svg"
   inkscape:version="0.92.1 r15371">
  <defs
     id="defs4792" />
  <sodipodi:namedview
     pagecolor="#ffffff"
     bordercolor="#666666"
     borderopacity="1"
     objecttolerance="10"
     gridtolerance="10"
     guidetolerance="10"
     inkscape:pageopacity="0"
     inkscape:pageshadow="2"
     inkscape:window-width="1920"
     inkscape:window-height="911"
     id="namedview4790"
     showgrid="false"
     showguides="true"
     inkscape:guide-bbox="true"
     inkscape:zoom="1.8163805"
     inkscape:cx="361.16175"
     inkscape:cy="147.13528"
     inkscape:window-x="0"
     inkscape:window-y="0"
     inkscape:window-maximized="1"
     inkscape:current-layer="g4786">
    <sodipodi:guide
       position="77.785185,43.116884"
       orientation="1,0"
       id="guide5337"
       inkscape:locked="false" />
  </sodipodi:namedview>
  <metadata
     id="metadata4760">
    <rdf:RDF>
      <cc:Work
         rdf:about="">
        <dc:format>image/svg+xml</dc:format>
        <dc:type
           rdf:resource="http://purl.org/dc/dcmitype/StillImage" />
        <dc:title />
      </cc:Work>
    </rdf:RDF>
  </metadata>
  <g
     stroke-opacity=".11765"
     transform="translate(0 -201.75)"
     id="g4786">
    <g
       fill-opacity=".84234"
       transform="matrix(.14159 0 0 .14159 45.981 239.46)"
       stroke="#000"
       stroke-width="1.4"
       fill="#fff"
       id="g4774">
      <path
         d="m44.361 29.08"
         id="path4762" />
      <path
         d="m41.819 64.049c-0.20484 1.9982-0.30976 4.0253-0.30976 6.0774 0 32.834 26.837 59.45 59.944 59.45 19.012 0 35.957-8.7781 46.938-22.47l13.339-0.0759c-12.519 19.674-34.719 32.751-60.018 32.751-39.1 0-70.796-31.243-70.796-69.781 0-2.0173 0.0871-4.0143 0.25739-5.9889l10.646 0.03711"
         id="path4764" />
      <path
         d="m41.819 64.049"
         id="path4766" />
      <path
         d="m57.914 29.266c10.927-11.445 26.392-18.584 43.536-18.584 32.505 0 58.969 25.656 59.917 57.662l11.118 0.05365c-0.87-37.796-32.22-68.177-70.78-68.177-23.588 0.00025-44.483 11.373-57.349 28.859z"
         id="path4768" />
      <path
         d="m183.24 80.565c-0.54423 0-1.0794 0.03924-1.6049 0.10836-1.8949-6.3952-7.8118-11.062-14.822-11.062-6.3789 0-11.854 3.8637-14.216 9.3782-1.3944-0.55464-2.9135-0.86304-4.5055-0.86304-4.9056 0-9.1326 2.8975-11.07 7.0728-1.2833-0.60361-2.7159-0.94292-4.2284-0.94292-4.2409 0-7.8594 2.6555-9.29 6.3935-0.95125-0.43656-2.0056-0.68627-3.1205-0.68627-4.1422 0-7.5 3.3577-7.5 7.5s3.3577 7.5 7.5 7.5h62.857c6.7373 0 12.199-5.4616 12.199-12.199 0-6.7376-5.462-12.199-12.199-12.199"
         id="path4770" />
      <path
         d="m65.439 43.144c-1.3554 0-2.6338 0.3154-3.7802 0.86241-0.449-7.323-6.5276-13.124-13.964-13.124-1.7915 0-3.502 0.3403-5.0761 0.95363-2.3233-5.88-8.0534-10.042-14.76-10.042-8.5704 0-15.55 6.7954-15.854 15.292-0.0047 0-0.0097-0.000323-0.01459-0.000323-6.5331 0-11.829 5.2961-11.829 11.829 0 6.5331 5.2964 11.829 11.829 11.829h53.448c4.86 0 8.7997-3.9397 8.7997-8.7997s-3.9397-8.7997-8.7997-8.7997"
         id="path4772" />
    </g>
    <text
       style="font-size:4.75723076px;line-height:1.25;font-family:Georgia;letter-spacing:0px;word-spacing:0px;fill:#ffffff;fill-opacity:0.84314001;stroke:#000000;stroke-width:0.19878711"
       xml:space="preserve"
       transform="scale(1.0030146,0.99699447)"
       line-height="1.25"
       font-size="4.7573px"
       y="248.10226"
       x="119.44698"
       id="text4780"><tspan
         style="line-height:0;text-align:center;letter-spacing:0.39643425px;text-anchor:middle;stroke-width:0.19878711"
         line-height="0"
         y="248.10226"
         x="98.556267"
         id="tspan4776">Alexander Kislov</tspan></text>
    <text
       style="font-size:8.91403866px;line-height:1.25;font-family:sans-serif;letter-spacing:0.89213389px;word-spacing:0px;fill:#ffffff;fill-opacity:0.84314001;stroke:#000000;stroke-width:0.22284847"
       xml:space="preserve"
       transform="scale(1.0080069,0.99205671)"
       line-height="1.25"
       font-size="8.9141px"
       y="257.85736"
       x="119.49445"
       id="text4784"><tspan
         style="font-size:7.13125134px;font-family:Georgia;text-align:center;letter-spacing:0.22279848px;text-anchor:middle;fill:#ffffff;fill-opacity:0.84314001;stroke:#000000;stroke-width:0.22284847;stroke-opacity:0.11764999"
         font-size="7.1313px"
         y="257.85736"
         x="98.377716"
         id="tspan4782">PORTFOLIO</tspan></text>
  </g>
</svg>
