<?xml version="1.0" encoding="UTF-8" standalone="no"?>
<!-- Generator: Adobe Illustrator 19.0.0, SVG Export Plug-In . SVG Version: 6.00 Build 0)  -->

<svg
   xmlns:dc="http://purl.org/dc/elements/1.1/"
   xmlns:cc="http://creativecommons.org/ns#"
   xmlns:rdf="http://www.w3.org/1999/02/22-rdf-syntax-ns#"
   xmlns:svg="http://www.w3.org/2000/svg"
   xmlns="http://www.w3.org/2000/svg"
   xmlns:sodipodi="http://sodipodi.sourceforge.net/DTD/sodipodi-0.dtd"
   xmlns:inkscape="http://www.inkscape.org/namespaces/inkscape"
   version="1.1"
   id="Layer_1"
   x="0px"
   y="0px"
   viewBox="0 0 503.6 503.6"
   style="enable-background:new 0 0 503.6 503.6;"
   xml:space="preserve"
   sodipodi:docname="icosahedron.svg"
   inkscape:version="0.92.1 r15371"><metadata
     id="metadata53"><rdf:RDF><cc:Work
         rdf:about=""><dc:format>image/svg+xml</dc:format><dc:type
           rdf:resource="http://purl.org/dc/dcmitype/StillImage" /></cc:Work></rdf:RDF></metadata><defs
     id="defs51" /><sodipodi:namedview
     pagecolor="#ffffff"
     bordercolor="#666666"
     borderopacity="1"
     objecttolerance="10"
     gridtolerance="10"
     guidetolerance="10"
     inkscape:pageopacity="0"
     inkscape:pageshadow="2"
     inkscape:window-width="1366"
     inkscape:window-height="703"
     id="namedview49"
     showgrid="false"
     inkscape:zoom="0.46862589"
     inkscape:cx="158.35358"
     inkscape:cy="231.85269"
     inkscape:window-x="0"
     inkscape:window-y="0"
     inkscape:window-maximized="1"
     inkscape:current-layer="Layer_1" /><g
     id="g6"
     style="fill:#8ebd4c;fill-opacity:1"><path
       style="fill:#8ebd4c;fill-opacity:1"
       d="M258.6,313.2c-1.6,0-4-1.6-4-3.2c0-2.4,1.6-4,3.2-4.8c4.8-0.8,9.6-1.6,14.4-4c1.6-0.8,4,0,5.6,2.4   c0.8,2.4,0,4-2.4,5.6C269.8,310.8,264.2,312.4,258.6,313.2L258.6,313.2z M242.6,312.4C241.8,312.4,241.8,312.4,242.6,312.4   c-6.4-0.8-12-2.4-16.8-5.6c-1.6-0.8-3.2-3.2-1.6-5.6s3.2-2.4,5.6-1.6c4.8,2.4,8.8,4,14.4,4.8c2.4,0,4,2.4,3.2,4.8   C245.8,310.8,244.2,312.4,242.6,312.4z M287.4,300.4c-0.8,0-2.4-0.8-3.2-1.6c-1.6-1.6-1.6-4,0.8-5.6c4-3.2,7.2-7.2,9.6-11.2   c1.6-1.6,4-2.4,5.6-0.8s2.4,4,0.8,5.6c-3.2,4.8-7.2,8.8-11.2,12.8C289,299.6,288.2,300.4,287.4,300.4z M213.8,298.8   c-0.8,0-1.6,0-2.4-0.8c-4-4-8-8-11.2-13.6c-0.8-1.6-0.8-4,1.6-5.6c1.6-0.8,4-0.8,5.6,1.6c2.4,4,5.6,8,9.6,11.2c1.6,1.6,1.6,4,0,5.6   C216.2,298,215.4,298.8,213.8,298.8z M304.2,274h-0.8c-2.4-0.8-3.2-3.2-2.4-4.8c1.6-4.8,2.4-9.6,2.4-14.4c0-2.4,1.6-4,4-4   s4,1.6,4,4c0,5.6-0.8,11.2-2.4,16.8C307.4,272.4,305.8,274,304.2,274z M197.8,271.6c-1.6,0-3.2-1.6-4-3.2   c-1.6-4.8-1.6-9.6-1.6-14.4v-2.4c0-2.4,1.6-4,4-4s4,1.6,4,4v1.6c0,4,0.8,8.8,1.6,12.8c0.8,2.4-0.8,4-3.2,4.8   C198.6,271.6,197.8,271.6,197.8,271.6z M305.8,246c-1.6,0-3.2-1.6-4-3.2c-0.8-4.8-2.4-9.6-4.8-13.6c-0.8-1.6,0-4,1.6-5.6   c1.6-0.8,4,0,5.6,1.6c2.4,4.8,4.8,10.4,5.6,16c0.8,2.4-0.8,4-3.2,4.8C305.8,246,305.8,246,305.8,246z M198.6,240.4   c-0.8,0-0.8,0-1.6,0c-2.4-0.8-3.2-3.2-2.4-4.8c1.6-5.6,4.8-10.4,8-15.2c1.6-1.6,4-2.4,5.6-0.8c1.6,1.6,2.4,4,0.8,5.6   c-3.2,4-4.8,8.8-6.4,12.8C202.6,238.8,201,240.4,198.6,240.4z M290.6,218.8c-0.8,0-2.4,0-3.2-0.8c-3.2-3.2-7.2-6.4-12-8.8   c-1.6-0.8-2.4-3.2-1.6-5.6c0.8-1.6,3.2-2.4,5.6-1.6c4.8,2.4,9.6,6.4,13.6,10.4c1.6,1.6,1.6,4,0,5.6   C292.2,218,291.4,218.8,290.6,218.8z M217,214c-0.8,0-2.4-0.8-3.2-1.6c-1.6-1.6-0.8-4,0.8-5.6c4.8-3.2,9.6-6.4,14.4-8.8   c2.4-0.8,4,0,5.6,2.4c0.8,2.4,0,4-2.4,5.6c-4.8,1.6-8.8,4-12.8,7.2C218.6,214,217.8,214,217,214z M262.6,203.6h-0.8   c-3.2-0.8-7.2-0.8-10.4-0.8c-1.6,0-3.2,0-4,0c-2.4,0-4-1.6-4-4s1.6-4,4-4c1.6,0,3.2,0,5.6,0c4,0,8,0,12,0.8   c2.4,0.8,3.2,2.4,3.2,4.8C265.8,202,264.2,203.6,262.6,203.6z"
       id="path2" /><path
       style="fill:#8ebd4c;fill-opacity:1"
       d="M461,376.4c-1.6,0-3.2-0.8-4-2.4l-7.2-12.8c-0.8-1.6-0.8-4,1.6-5.6c1.6-0.8,4-0.8,5.6,1.6l8,13.6   c0.8,1.6,0.8,2.4,0,4C463.4,375.6,462.6,376.4,461,376.4z M445,379.6h-16c-2.4,0-4-1.6-4-4s1.6-4,4-4h16c2.4,0,4,1.6,4,4   S446.6,379.6,445,379.6z M413,379.6h-16c-2.4,0-4-1.6-4-4s1.6-4,4-4h16c2.4,0,4,1.6,4,4S414.6,379.6,413,379.6z M381,379.6h-16   c-2.4,0-4-1.6-4-4s1.6-4,4-4h16c2.4,0,4,1.6,4,4S382.6,379.6,381,379.6z M349,379.6h-16c-2.4,0-4-1.6-4-4s1.6-4,4-4h16   c2.4,0,4,1.6,4,4S350.6,379.6,349,379.6z M317,379.6h-16c-2.4,0-4-1.6-4-4s1.6-4,4-4h16c2.4,0,4,1.6,4,4S318.6,379.6,317,379.6z    M285,379.6h-16c-2.4,0-4-1.6-4-4s1.6-4,4-4h16c2.4,0,4,1.6,4,4S286.6,379.6,285,379.6z M253,379.6h-16c-2.4,0-4-1.6-4-4s1.6-4,4-4   h16c2.4,0,4,1.6,4,4S254.6,379.6,253,379.6z M221,379.6h-16c-2.4,0-4-1.6-4-4s1.6-4,4-4h16c2.4,0,4,1.6,4,4S222.6,379.6,221,379.6z    M189,379.6h-16c-2.4,0-4-1.6-4-4s1.6-4,4-4h16c2.4,0,4,1.6,4,4S190.6,379.6,189,379.6z M157,379.6h-16c-2.4,0-4-1.6-4-4s1.6-4,4-4   h16c2.4,0,4,1.6,4,4S158.6,379.6,157,379.6z M125,379.6h-16c-2.4,0-4-1.6-4-4s1.6-4,4-4h16c2.4,0,4,1.6,4,4S126.6,379.6,125,379.6z    M93,379.6H77c-2.4,0-4-1.6-4-4s1.6-4,4-4h16c2.4,0,4,1.6,4,4S94.6,379.6,93,379.6z M61,379.6H45c-2.4,0-4-1.6-4-4s1.6-4,4-4h16   c2.4,0,4,1.6,4,4S62.6,379.6,61,379.6z M49,364.4c-0.8,0-1.6,0-2.4-0.8c-1.6-0.8-2.4-3.2-1.6-5.6l8-13.6c0.8-1.6,3.2-2.4,5.6-1.6   c1.6,0.8,2.4,3.2,1.6,5.6l-8,13.6C51.4,364.4,49.8,364.4,49,364.4z M445,349.2c-1.6,0-2.4-0.8-3.2-1.6l-8-13.6   c-0.8-1.6-0.8-4,1.6-5.6c1.6-0.8,4-0.8,5.6,1.6l8,13.6c0.8,1.6,0.8,4-1.6,5.6C445.8,348.4,445.8,349.2,445,349.2z M65,337.2   c-0.8,0-1.6,0-2.4-0.8c-1.6-0.8-2.4-3.2-1.6-5.6l8-13.6c1.6-1.6,4-2.4,6.4-1.6c1.6,0.8,2.4,3.2,1.6,5.6l-8,13.6   C67.4,336.4,66.6,337.2,65,337.2z M428.2,321.2c-1.6,0-2.4-0.8-3.2-1.6l-8-13.6c-0.8-1.6-0.8-4,1.6-5.6c1.6-0.8,4-0.8,5.6,1.6   l8,13.6c0.8,1.6,0.8,4-1.6,5.6C429.8,321.2,429,321.2,428.2,321.2z M81,309.2c-0.8,0-1.6,0-2.4-0.8c-1.6-0.8-2.4-3.2-1.6-5.6   l8-13.6c0.8-1.6,3.2-2.4,5.6-1.6c1.6,0.8,2.4,3.2,1.6,5.6l-8,13.6C84.2,309.2,82.6,309.2,81,309.2z M412.2,294   c-1.6,0-2.4-0.8-3.2-1.6l-8-13.6c-0.8-1.6-0.8-4,1.6-5.6c1.6-0.8,4-0.8,5.6,1.6l8,13.6c0.8,1.6,0.8,4-1.6,5.6   C413.8,293.2,413,294,412.2,294z M97,282c-0.8,0-1.6,0-2.4-0.8c-1.6-0.8-2.4-3.2-1.6-5.6l8-13.6c0.8-1.6,4-2.4,5.6-1.6   s2.4,3.2,1.6,5.6l-8,13.6C100.2,281.2,98.6,282,97,282z M396.2,266c-1.6,0-2.4-0.8-3.2-1.6l-8-13.6c-0.8-1.6-0.8-4,1.6-5.6   c1.6-0.8,4-0.8,5.6,1.6l8,13.6c0.8,1.6,0.8,4-1.6,5.6C397.8,266,397,266,396.2,266z M113.8,254.8c-0.8,0-1.6,0-2.4-0.8   c-1.6-0.8-2.4-3.2-1.6-5.6l8-13.6c0.8-1.6,3.2-2.4,5.6-1.6c1.6,0.8,2.4,3.2,1.6,5.6l-8,13.6C116.2,254,114.6,254.8,113.8,254.8z    M380.2,238.8c-1.6,0-2.4-0.8-3.2-1.6l-8-13.6c-0.8-1.6-0.8-4,1.6-5.6c1.6-0.8,4-0.8,5.6,1.6l8,13.6c0.8,1.6,0.8,4-1.6,5.6   C381,238,380.2,238.8,380.2,238.8z M129.8,226.8c-0.8,0-1.6,0-2.4-0.8c-1.6-0.8-2.4-3.2-1.6-5.6l8-13.6c0.8-1.6,3.2-2.4,5.6-1.6   c1.6,0.8,2.4,3.2,1.6,5.6l-8,13.6C132.2,226,131.4,226.8,129.8,226.8z M363.4,210.8c-1.6,0-2.4-0.8-3.2-1.6l-8-13.6   c-0.8-1.6-0.8-4,1.6-5.6c1.6-0.8,4-0.8,5.6,1.6l8,13.6c0.8,1.6,0.8,4-1.6,5.6C365,210.8,364.2,210.8,363.4,210.8z M145.8,199.6   c-0.8,0-1.6,0-2.4-0.8c-1.6-0.8-2.4-3.2-1.6-5.6l8-13.6c0.8-1.6,3.2-2.4,5.6-1.6c1.6,0.8,2.4,3.2,1.6,5.6l-8,13.6   C149,198.8,147.4,199.6,145.8,199.6z M347.4,183.6c-1.6,0-2.4-0.8-3.2-1.6l-8-13.6c-0.8-1.6-0.8-4,1.6-5.6c1.6-0.8,4-0.8,5.6,1.6   l8,13.6c0.8,1.6,0.8,4-1.6,5.6C349,182.8,348.2,183.6,347.4,183.6z M162.6,171.6c-0.8,0-1.6,0-2.4-0.8c-1.6-0.8-2.4-3.2-1.6-5.6   l8-13.6c0.8-1.6,3.2-2.4,5.6-1.6c1.6,0.8,2.4,3.2,1.6,5.6l-8,13.6C165,170.8,163.4,171.6,162.6,171.6z M331.4,155.6   c-1.6,0-2.4-0.8-3.2-1.6l-8-13.6c-0.8-1.6-0.8-4,1.6-5.6c1.6-0.8,4-0.8,5.6,1.6l8,13.6c0.8,1.6,0.8,4-1.6,5.6   C333,155.6,332.2,155.6,331.4,155.6z M178.6,144.4c-0.8,0-1.6,0-2.4-0.8c-1.6-0.8-2.4-3.2-1.6-5.6l8-13.6c0.8-1.6,3.2-2.4,5.6-1.6   c1.6,0.8,2.4,3.2,1.6,5.6l-8,13.6C181,143.6,180.2,144.4,178.6,144.4z M315.4,128.4c-1.6,0-2.4-0.8-3.2-1.6l-8-13.6   c-0.8-1.6-0.8-4,1.6-5.6c1.6-0.8,4-0.8,5.6,1.6l8,13.6c0.8,1.6,0.8,4-1.6,5.6C316.2,128.4,315.4,128.4,315.4,128.4z M194.6,116.4   c-0.8,0-1.6,0-2.4-0.8c-1.6-0.8-2.4-3.2-1.6-5.6l8-13.6c0.8-1.6,3.2-2.4,5.6-1.6c1.6,0.8,2.4,3.2,1.6,5.6l-8,13.6   C197,115.6,196.2,116.4,194.6,116.4z M298.6,100.4c-1.6,0-2.4-0.8-3.2-1.6l-8-13.6c-0.8-1.6-0.8-4,1.6-5.6c1.6-0.8,4-0.8,5.6,1.6   l8,13.6c0.8,1.6,0.8,4-1.6,5.6C300.2,100.4,299.4,100.4,298.6,100.4z M210.6,89.2c-0.8,0-1.6,0-2.4-0.8c-1.6-0.8-2.4-3.2-1.6-5.6   l8-13.6c2.4-2.4,4.8-2.4,6.4-1.6s2.4,3.2,1.6,5.6l-8,13.6C213.8,88.4,212.2,89.2,210.6,89.2z M282.6,73.2c-1.6,0-2.4-0.8-3.2-1.6   l-8-13.6c-0.8-1.6-0.8-4,1.6-5.6c1.6-0.8,4-0.8,5.6,1.6l8,13.6c0.8,1.6,0.8,4-1.6,5.6C284.2,73.2,283.4,73.2,282.6,73.2z    M227.4,61.2c-0.8,0-1.6,0-2.4-0.8c-1.6-0.8-2.4-3.2-1.6-5.6l8-13.6c0.8-1.6,3.2-2.4,5.6-1.6c1.6,0.8,2.4,3.2,1.6,5.6l-8,13.6   C229.8,60.4,228.2,61.2,227.4,61.2z M266.6,45.2c-1.6,0-2.4-0.8-3.2-1.6l-8-13.6c-0.8-1.6-0.8-4,1.6-5.6c1.6-0.8,4-0.8,5.6,1.6   l8,13.6c0.8,1.6,0.8,4-1.6,5.6C267.4,45.2,267.4,45.2,266.6,45.2z M243.4,34c-0.8,0-1.6,0-2.4-0.8c-1.6-0.8-2.4-3.2-1.6-5.6l8-13.6   c1.6-2.4,4-2.4,6.4-1.6c1.6,0.8,2.4,3.2,1.6,5.6l-8,13.6C245.8,33.2,245,34,243.4,34z"
       id="path4" /></g><g
     id="g16"
     style="fill:#47a3da;fill-opacity:0.94117647"><path
       style="fill:#47a3da;fill-opacity:0.94117647"
       d="M251.4,497.2c-4.8,0-8-3.2-8-8V250c0-4.8,3.2-8,8-8c4.8,0,8,3.2,8,8v239.2   C259.4,493.2,256.2,497.2,251.4,497.2z"
       id="path8" /><path
       style="fill:#47a3da;fill-opacity:0.94117647"
       d="M251.4,503.6c-1.6,0-2.4,0-4-0.8L37.8,380.4c-2.4-1.6-2.4-4-2.4-7.2V130c0-3.2,0-5.6,2.4-7.2   L248.2,1.2c2.4-1.6,4.8-1.6,8,0l209.6,121.6c2.4,1.6,2.4,4,2.4,7.2v244c0,3.2,0,5.6-2.4,7.2L254.6,502   C253.8,502.8,253,503.6,251.4,503.6z M51.4,369.2l200,117.6l200-117.6V134l-200-116.8L51.4,134V369.2z"
       id="path10" /><path
       style="fill:#47a3da;fill-opacity:0.94117647"
       d="M251.4,380.4c-1.6,0-2.4,0-4-0.8l-103.2-59.2c-2.4-1.6-4.8-4.8-4.8-7.2V194.8c0-3.2,2.4-5.6,4.8-7.2   l103.2-59.2c2.4-1.6,5.6-1.6,8,0l103.2,59.2c2.4,1.6,4.8,4,4.8,7.2v118.4c0,3.2-2.4,5.6-4.8,7.2l-103.2,59.2   C254.6,379.6,253,380.4,251.4,380.4z M155.4,308.4l96,54.4l96-54.4V199.6l-96-54.4l-96,54.4V308.4z"
       id="path12" /><path
       style="fill:#47a3da;fill-opacity:0.94117647"
       d="M251.4,258.8c-1.6,0-2.4,0-4-0.8L38.6,137.2c-4-2.4,1.6-6.4,4-9.6c2.4-4,3.2-4.8,7.2-2.4L251.4,242   l204-117.6c4-2.4,8-1.6,10.4,2.4c2.4,4,0.8,9.6-3.2,12l-207.2,120C253.8,258.8,253,258.8,251.4,258.8z"
       id="path14" /></g><g
     id="g18" /><g
     id="g20" /><g
     id="g22" /><g
     id="g24" /><g
     id="g26" /><g
     id="g28" /><g
     id="g30" /><g
     id="g32" /><g
     id="g34" /><g
     id="g36" /><g
     id="g38" /><g
     id="g40" /><g
     id="g42" /><g
     id="g44" /><g
     id="g46" /></svg>