<?xml version="1.0" encoding="UTF-8" standalone="no"?>
<!-- Generator: Adobe Illustrator 19.0.0, SVG Export Plug-In . SVG Version: 6.00 Build 0)  -->

<svg
   xmlns:dc="http://purl.org/dc/elements/1.1/"
   xmlns:cc="http://creativecommons.org/ns#"
   xmlns:rdf="http://www.w3.org/1999/02/22-rdf-syntax-ns#"
   xmlns:svg="http://www.w3.org/2000/svg"
   xmlns="http://www.w3.org/2000/svg"
   xmlns:sodipodi="http://sodipodi.sourceforge.net/DTD/sodipodi-0.dtd"
   xmlns:inkscape="http://www.inkscape.org/namespaces/inkscape"
   version="1.1"
   id="Layer_1"
   x="0px"
   y="0px"
   viewBox="0 0 192 192"
   xml:space="preserve"
   sodipodi:docname="portfolio.svg"
   inkscape:version="0.92.1 r15371"
   width="192"
   height="192"><metadata
     id="metadata53"><rdf:RDF><cc:Work
         rdf:about=""><dc:format>image/svg+xml</dc:format><dc:type
           rdf:resource="http://purl.org/dc/dcmitype/StillImage" /><dc:title></dc:title></cc:Work></rdf:RDF></metadata><defs
     id="defs51" /><sodipodi:namedview
     pagecolor="#ffffff"
     bordercolor="#666666"
     borderopacity="1"
     objecttolerance="10"
     gridtolerance="10"
     guidetolerance="10"
     inkscape:pageopacity="0"
     inkscape:pageshadow="2"
     inkscape:window-width="1920"
     inkscape:window-height="911"
     id="namedview49"
     showgrid="false"
     inkscape:zoom="2"
     inkscape:cx="131.87147"
     inkscape:cy="101.61015"
     inkscape:window-x="0"
     inkscape:window-y="0"
     inkscape:window-maximized="1"
     inkscape:current-layer="Layer_1"
     fit-margin-top="0"
     fit-margin-left="0"
     fit-margin-right="0"
     fit-margin-bottom="0" /><g
     id="g6"
     style="fill:#8ebd4c;fill-opacity:1"
     transform="matrix(0.38125496,0,0,0.38125496,0.00357442,0)"><path
       style="fill:#8ebd4c;fill-opacity:1"
       d="m 258.6,313.2 c -1.6,0 -4,-1.6 -4,-3.2 0,-2.4 1.6,-4 3.2,-4.8 4.8,-0.8 9.6,-1.6 14.4,-4 1.6,-0.8 4,0 5.6,2.4 0.8,2.4 0,4 -2.4,5.6 -5.6,1.6 -11.2,3.2 -16.8,4 z m -16,-0.8 c -0.8,0 -0.8,0 0,0 -6.4,-0.8 -12,-2.4 -16.8,-5.6 -1.6,-0.8 -3.2,-3.2 -1.6,-5.6 1.6,-2.4 3.2,-2.4 5.6,-1.6 4.8,2.4 8.8,4 14.4,4.8 2.4,0 4,2.4 3.2,4.8 -1.6,1.6 -3.2,3.2 -4.8,3.2 z m 44.8,-12 c -0.8,0 -2.4,-0.8 -3.2,-1.6 -1.6,-1.6 -1.6,-4 0.8,-5.6 4,-3.2 7.2,-7.2 9.6,-11.2 1.6,-1.6 4,-2.4 5.6,-0.8 1.6,1.6 2.4,4 0.8,5.6 -3.2,4.8 -7.2,8.8 -11.2,12.8 -0.8,0 -1.6,0.8 -2.4,0.8 z m -73.6,-1.6 c -0.8,0 -1.6,0 -2.4,-0.8 -4,-4 -8,-8 -11.2,-13.6 -0.8,-1.6 -0.8,-4 1.6,-5.6 1.6,-0.8 4,-0.8 5.6,1.6 2.4,4 5.6,8 9.6,11.2 1.6,1.6 1.6,4 0,5.6 -0.8,0.8 -1.6,1.6 -3.2,1.6 z M 304.2,274 h -0.8 c -2.4,-0.8 -3.2,-3.2 -2.4,-4.8 1.6,-4.8 2.4,-9.6 2.4,-14.4 0,-2.4 1.6,-4 4,-4 2.4,0 4,1.6 4,4 0,5.6 -0.8,11.2 -2.4,16.8 -1.6,0.8 -3.2,2.4 -4.8,2.4 z m -106.4,-2.4 c -1.6,0 -3.2,-1.6 -4,-3.2 -1.6,-4.8 -1.6,-9.6 -1.6,-14.4 v -2.4 c 0,-2.4 1.6,-4 4,-4 2.4,0 4,1.6 4,4 v 1.6 c 0,4 0.8,8.8 1.6,12.8 0.8,2.4 -0.8,4 -3.2,4.8 0,0.8 -0.8,0.8 -0.8,0.8 z m 108,-25.6 c -1.6,0 -3.2,-1.6 -4,-3.2 -0.8,-4.8 -2.4,-9.6 -4.8,-13.6 -0.8,-1.6 0,-4 1.6,-5.6 1.6,-0.8 4,0 5.6,1.6 2.4,4.8 4.8,10.4 5.6,16 0.8,2.4 -0.8,4 -3.2,4.8 -0.8,0 -0.8,0 -0.8,0 z m -107.2,-5.6 c -0.8,0 -0.8,0 -1.6,0 -2.4,-0.8 -3.2,-3.2 -2.4,-4.8 1.6,-5.6 4.8,-10.4 8,-15.2 1.6,-1.6 4,-2.4 5.6,-0.8 1.6,1.6 2.4,4 0.8,5.6 -3.2,4 -4.8,8.8 -6.4,12.8 0,0.8 -1.6,2.4 -4,2.4 z m 92,-21.6 c -0.8,0 -2.4,0 -3.2,-0.8 -3.2,-3.2 -7.2,-6.4 -12,-8.8 -1.6,-0.8 -2.4,-3.2 -1.6,-5.6 0.8,-1.6 3.2,-2.4 5.6,-1.6 4.8,2.4 9.6,6.4 13.6,10.4 1.6,1.6 1.6,4 0,5.6 -0.8,0 -1.6,0.8 -2.4,0.8 z M 217,214 c -0.8,0 -2.4,-0.8 -3.2,-1.6 -1.6,-1.6 -0.8,-4 0.8,-5.6 4.8,-3.2 9.6,-6.4 14.4,-8.8 2.4,-0.8 4,0 5.6,2.4 0.8,2.4 0,4 -2.4,5.6 -4.8,1.6 -8.8,4 -12.8,7.2 -0.8,0.8 -1.6,0.8 -2.4,0.8 z m 45.6,-10.4 h -0.8 c -3.2,-0.8 -7.2,-0.8 -10.4,-0.8 -1.6,0 -3.2,0 -4,0 -2.4,0 -4,-1.6 -4,-4 0,-2.4 1.6,-4 4,-4 1.6,0 3.2,0 5.6,0 4,0 8,0 12,0.8 2.4,0.8 3.2,2.4 3.2,4.8 -2.4,1.6 -4,3.2 -5.6,3.2 z"
       id="path2"
       inkscape:connector-curvature="0" /><path
       style="fill:#8ebd4c;fill-opacity:1"
       d="m 461,376.4 c -1.6,0 -3.2,-0.8 -4,-2.4 l -7.2,-12.8 c -0.8,-1.6 -0.8,-4 1.6,-5.6 1.6,-0.8 4,-0.8 5.6,1.6 l 8,13.6 c 0.8,1.6 0.8,2.4 0,4 -1.6,0.8 -2.4,1.6 -4,1.6 z m -16,3.2 h -16 c -2.4,0 -4,-1.6 -4,-4 0,-2.4 1.6,-4 4,-4 h 16 c 2.4,0 4,1.6 4,4 0,2.4 -2.4,4 -4,4 z m -32,0 h -16 c -2.4,0 -4,-1.6 -4,-4 0,-2.4 1.6,-4 4,-4 h 16 c 2.4,0 4,1.6 4,4 0,2.4 -2.4,4 -4,4 z m -32,0 h -16 c -2.4,0 -4,-1.6 -4,-4 0,-2.4 1.6,-4 4,-4 h 16 c 2.4,0 4,1.6 4,4 0,2.4 -2.4,4 -4,4 z m -32,0 h -16 c -2.4,0 -4,-1.6 -4,-4 0,-2.4 1.6,-4 4,-4 h 16 c 2.4,0 4,1.6 4,4 0,2.4 -2.4,4 -4,4 z m -32,0 h -16 c -2.4,0 -4,-1.6 -4,-4 0,-2.4 1.6,-4 4,-4 h 16 c 2.4,0 4,1.6 4,4 0,2.4 -2.4,4 -4,4 z m -32,0 h -16 c -2.4,0 -4,-1.6 -4,-4 0,-2.4 1.6,-4 4,-4 h 16 c 2.4,0 4,1.6 4,4 0,2.4 -2.4,4 -4,4 z m -32,0 h -16 c -2.4,0 -4,-1.6 -4,-4 0,-2.4 1.6,-4 4,-4 h 16 c 2.4,0 4,1.6 4,4 0,2.4 -2.4,4 -4,4 z m -32,0 h -16 c -2.4,0 -4,-1.6 -4,-4 0,-2.4 1.6,-4 4,-4 h 16 c 2.4,0 4,1.6 4,4 0,2.4 -2.4,4 -4,4 z m -32,0 h -16 c -2.4,0 -4,-1.6 -4,-4 0,-2.4 1.6,-4 4,-4 h 16 c 2.4,0 4,1.6 4,4 0,2.4 -2.4,4 -4,4 z m -32,0 h -16 c -2.4,0 -4,-1.6 -4,-4 0,-2.4 1.6,-4 4,-4 h 16 c 2.4,0 4,1.6 4,4 0,2.4 -2.4,4 -4,4 z m -32,0 h -16 c -2.4,0 -4,-1.6 -4,-4 0,-2.4 1.6,-4 4,-4 h 16 c 2.4,0 4,1.6 4,4 0,2.4 -2.4,4 -4,4 z m -32,0 H 77 c -2.4,0 -4,-1.6 -4,-4 0,-2.4 1.6,-4 4,-4 h 16 c 2.4,0 4,1.6 4,4 0,2.4 -2.4,4 -4,4 z m -32,0 H 45 c -2.4,0 -4,-1.6 -4,-4 0,-2.4 1.6,-4 4,-4 h 16 c 2.4,0 4,1.6 4,4 0,2.4 -2.4,4 -4,4 z M 49,364.4 c -0.8,0 -1.6,0 -2.4,-0.8 C 45,362.8 44.2,360.4 45,358 l 8,-13.6 c 0.8,-1.6 3.2,-2.4 5.6,-1.6 1.6,0.8 2.4,3.2 1.6,5.6 l -8,13.6 c -0.8,2.4 -2.4,2.4 -3.2,2.4 z m 396,-15.2 c -1.6,0 -2.4,-0.8 -3.2,-1.6 l -8,-13.6 c -0.8,-1.6 -0.8,-4 1.6,-5.6 1.6,-0.8 4,-0.8 5.6,1.6 l 8,13.6 c 0.8,1.6 0.8,4 -1.6,5.6 -1.6,-0.8 -1.6,0 -2.4,0 z m -380,-12 c -0.8,0 -1.6,0 -2.4,-0.8 -1.6,-0.8 -2.4,-3.2 -1.6,-5.6 l 8,-13.6 c 1.6,-1.6 4,-2.4 6.4,-1.6 1.6,0.8 2.4,3.2 1.6,5.6 l -8,13.6 c -1.6,1.6 -2.4,2.4 -4,2.4 z m 363.2,-16 c -1.6,0 -2.4,-0.8 -3.2,-1.6 L 417,306 c -0.8,-1.6 -0.8,-4 1.6,-5.6 1.6,-0.8 4,-0.8 5.6,1.6 l 8,13.6 c 0.8,1.6 0.8,4 -1.6,5.6 -0.8,0 -1.6,0 -2.4,0 z M 81,309.2 c -0.8,0 -1.6,0 -2.4,-0.8 -1.6,-0.8 -2.4,-3.2 -1.6,-5.6 l 8,-13.6 c 0.8,-1.6 3.2,-2.4 5.6,-1.6 1.6,0.8 2.4,3.2 1.6,5.6 l -8,13.6 c 0,2.4 -1.6,2.4 -3.2,2.4 z M 412.2,294 c -1.6,0 -2.4,-0.8 -3.2,-1.6 l -8,-13.6 c -0.8,-1.6 -0.8,-4 1.6,-5.6 1.6,-0.8 4,-0.8 5.6,1.6 l 8,13.6 c 0.8,1.6 0.8,4 -1.6,5.6 -0.8,-0.8 -1.6,0 -2.4,0 z M 97,282 c -0.8,0 -1.6,0 -2.4,-0.8 C 93,280.4 92.2,278 93,275.6 l 8,-13.6 c 0.8,-1.6 4,-2.4 5.6,-1.6 1.6,0.8 2.4,3.2 1.6,5.6 l -8,13.6 c 0,1.6 -1.6,2.4 -3.2,2.4 z m 299.2,-16 c -1.6,0 -2.4,-0.8 -3.2,-1.6 l -8,-13.6 c -0.8,-1.6 -0.8,-4 1.6,-5.6 1.6,-0.8 4,-0.8 5.6,1.6 l 8,13.6 c 0.8,1.6 0.8,4 -1.6,5.6 -0.8,0 -1.6,0 -2.4,0 z M 113.8,254.8 c -0.8,0 -1.6,0 -2.4,-0.8 -1.6,-0.8 -2.4,-3.2 -1.6,-5.6 l 8,-13.6 c 0.8,-1.6 3.2,-2.4 5.6,-1.6 1.6,0.8 2.4,3.2 1.6,5.6 l -8,13.6 c -0.8,1.6 -2.4,2.4 -3.2,2.4 z m 266.4,-16 c -1.6,0 -2.4,-0.8 -3.2,-1.6 l -8,-13.6 c -0.8,-1.6 -0.8,-4 1.6,-5.6 1.6,-0.8 4,-0.8 5.6,1.6 l 8,13.6 c 0.8,1.6 0.8,4 -1.6,5.6 -1.6,-0.8 -2.4,0 -2.4,0 z m -250.4,-12 c -0.8,0 -1.6,0 -2.4,-0.8 -1.6,-0.8 -2.4,-3.2 -1.6,-5.6 l 8,-13.6 c 0.8,-1.6 3.2,-2.4 5.6,-1.6 1.6,0.8 2.4,3.2 1.6,5.6 l -8,13.6 c -0.8,1.6 -1.6,2.4 -3.2,2.4 z m 233.6,-16 c -1.6,0 -2.4,-0.8 -3.2,-1.6 l -8,-13.6 c -0.8,-1.6 -0.8,-4 1.6,-5.6 1.6,-0.8 4,-0.8 5.6,1.6 l 8,13.6 c 0.8,1.6 0.8,4 -1.6,5.6 -0.8,0 -1.6,0 -2.4,0 z M 145.8,199.6 c -0.8,0 -1.6,0 -2.4,-0.8 -1.6,-0.8 -2.4,-3.2 -1.6,-5.6 l 8,-13.6 c 0.8,-1.6 3.2,-2.4 5.6,-1.6 1.6,0.8 2.4,3.2 1.6,5.6 l -8,13.6 c 0,1.6 -1.6,2.4 -3.2,2.4 z m 201.6,-16 c -1.6,0 -2.4,-0.8 -3.2,-1.6 l -8,-13.6 c -0.8,-1.6 -0.8,-4 1.6,-5.6 1.6,-0.8 4,-0.8 5.6,1.6 l 8,13.6 c 0.8,1.6 0.8,4 -1.6,5.6 -0.8,-0.8 -1.6,0 -2.4,0 z m -184.8,-12 c -0.8,0 -1.6,0 -2.4,-0.8 -1.6,-0.8 -2.4,-3.2 -1.6,-5.6 l 8,-13.6 c 0.8,-1.6 3.2,-2.4 5.6,-1.6 1.6,0.8 2.4,3.2 1.6,5.6 l -8,13.6 c -0.8,1.6 -2.4,2.4 -3.2,2.4 z m 168.8,-16 c -1.6,0 -2.4,-0.8 -3.2,-1.6 l -8,-13.6 c -0.8,-1.6 -0.8,-4 1.6,-5.6 1.6,-0.8 4,-0.8 5.6,1.6 l 8,13.6 c 0.8,1.6 0.8,4 -1.6,5.6 -0.8,0 -1.6,0 -2.4,0 z M 178.6,144.4 c -0.8,0 -1.6,0 -2.4,-0.8 -1.6,-0.8 -2.4,-3.2 -1.6,-5.6 l 8,-13.6 c 0.8,-1.6 3.2,-2.4 5.6,-1.6 1.6,0.8 2.4,3.2 1.6,5.6 l -8,13.6 c -0.8,1.6 -1.6,2.4 -3.2,2.4 z m 136.8,-16 c -1.6,0 -2.4,-0.8 -3.2,-1.6 l -8,-13.6 c -0.8,-1.6 -0.8,-4 1.6,-5.6 1.6,-0.8 4,-0.8 5.6,1.6 l 8,13.6 c 0.8,1.6 0.8,4 -1.6,5.6 -1.6,0 -2.4,0 -2.4,0 z m -120.8,-12 c -0.8,0 -1.6,0 -2.4,-0.8 -1.6,-0.8 -2.4,-3.2 -1.6,-5.6 l 8,-13.6 c 0.8,-1.6 3.2,-2.4 5.6,-1.6 1.6,0.8 2.4,3.2 1.6,5.6 l -8,13.6 c -0.8,1.6 -1.6,2.4 -3.2,2.4 z m 104,-16 c -1.6,0 -2.4,-0.8 -3.2,-1.6 l -8,-13.6 c -0.8,-1.6 -0.8,-4 1.6,-5.6 1.6,-0.8 4,-0.8 5.6,1.6 l 8,13.6 c 0.8,1.6 0.8,4 -1.6,5.6 -0.8,0 -1.6,0 -2.4,0 z m -88,-11.2 c -0.8,0 -1.6,0 -2.4,-0.8 -1.6,-0.8 -2.4,-3.2 -1.6,-5.6 l 8,-13.6 c 2.4,-2.4 4.8,-2.4 6.4,-1.6 1.6,0.8 2.4,3.2 1.6,5.6 l -8,13.6 c -0.8,1.6 -2.4,2.4 -4,2.4 z m 72,-16 c -1.6,0 -2.4,-0.8 -3.2,-1.6 l -8,-13.6 c -0.8,-1.6 -0.8,-4 1.6,-5.6 1.6,-0.8 4,-0.8 5.6,1.6 l 8,13.6 c 0.8,1.6 0.8,4 -1.6,5.6 -0.8,0 -1.6,0 -2.4,0 z m -55.2,-12 c -0.8,0 -1.6,0 -2.4,-0.8 -1.6,-0.8 -2.4,-3.2 -1.6,-5.6 l 8,-13.6 c 0.8,-1.6 3.2,-2.4 5.6,-1.6 1.6,0.8 2.4,3.2 1.6,5.6 l -8,13.6 c -0.8,1.6 -2.4,2.4 -3.2,2.4 z m 39.2,-16 c -1.6,0 -2.4,-0.8 -3.2,-1.6 l -8,-13.6 c -0.8,-1.6 -0.8,-4 1.6,-5.6 1.6,-0.8 4,-0.8 5.6,1.6 l 8,13.6 c 0.8,1.6 0.8,4 -1.6,5.6 -1.6,0 -1.6,0 -2.4,0 z M 243.4,34 c -0.8,0 -1.6,0 -2.4,-0.8 -1.6,-0.8 -2.4,-3.2 -1.6,-5.6 l 8,-13.6 c 1.6,-2.4 4,-2.4 6.4,-1.6 1.6,0.8 2.4,3.2 1.6,5.6 l -8,13.6 c -1.6,1.6 -2.4,2.4 -4,2.4 z"
       id="path4"
       inkscape:connector-curvature="0" /></g><g
     id="g16"
     style="fill:#47a3da;fill-opacity:0.94117647"
     transform="matrix(0.38125496,0,0,0.38125496,0.00357442,0)"><path
       style="fill:#47a3da;fill-opacity:0.94117647"
       d="m 251.4,497.2 c -4.8,0 -8,-3.2 -8,-8 V 250 c 0,-4.8 3.2,-8 8,-8 4.8,0 8,3.2 8,8 v 239.2 c 0,4 -3.2,8 -8,8 z"
       id="path8"
       inkscape:connector-curvature="0" /><path
       style="fill:#47a3da;fill-opacity:0.94117647"
       d="m 251.4,503.6 c -1.6,0 -2.4,0 -4,-0.8 L 37.8,380.4 c -2.4,-1.6 -2.4,-4 -2.4,-7.2 V 130 c 0,-3.2 0,-5.6 2.4,-7.2 L 248.2,1.2 c 2.4,-1.6 4.8,-1.6 8,0 l 209.6,121.6 c 2.4,1.6 2.4,4 2.4,7.2 v 244 c 0,3.2 0,5.6 -2.4,7.2 L 254.6,502 c -0.8,0.8 -1.6,1.6 -3.2,1.6 z m -200,-134.4 200,117.6 200,-117.6 V 134 L 251.4,17.2 51.4,134 Z"
       id="path10"
       inkscape:connector-curvature="0" /><path
       style="fill:#47a3da;fill-opacity:0.94117647"
       d="m 251.4,380.4 c -1.6,0 -2.4,0 -4,-0.8 L 144.2,320.4 c -2.4,-1.6 -4.8,-4.8 -4.8,-7.2 V 194.8 c 0,-3.2 2.4,-5.6 4.8,-7.2 l 103.2,-59.2 c 2.4,-1.6 5.6,-1.6 8,0 l 103.2,59.2 c 2.4,1.6 4.8,4 4.8,7.2 v 118.4 c 0,3.2 -2.4,5.6 -4.8,7.2 l -103.2,59.2 c -0.8,0 -2.4,0.8 -4,0.8 z m -96,-72 96,54.4 96,-54.4 V 199.6 l -96,-54.4 -96,54.4 z"
       id="path12"
       inkscape:connector-curvature="0" /><path
       style="fill:#47a3da;fill-opacity:0.94117647"
       d="m 251.4,258.8 c -1.6,0 -2.4,0 -4,-0.8 L 38.6,137.2 c -4,-2.4 1.6,-6.4 4,-9.6 2.4,-4 3.2,-4.8 7.2,-2.4 L 251.4,242 455.4,124.4 c 4,-2.4 8,-1.6 10.4,2.4 2.4,4 0.8,9.6 -3.2,12 l -207.2,120 c -1.6,0 -2.4,0 -4,0 z"
       id="path14"
       inkscape:connector-curvature="0" /></g><g
     id="g18"
     transform="translate(-35.4,-311.6)" /><g
     id="g20"
     transform="translate(-35.4,-311.6)" /><g
     id="g22"
     transform="translate(-35.4,-311.6)" /><g
     id="g24"
     transform="translate(-35.4,-311.6)" /><g
     id="g26"
     transform="translate(-35.4,-311.6)" /><g
     id="g28"
     transform="translate(-35.4,-311.6)" /><g
     id="g30"
     transform="translate(-35.4,-311.6)" /><g
     id="g32"
     transform="translate(-35.4,-311.6)" /><g
     id="g34"
     transform="translate(-35.4,-311.6)" /><g
     id="g36"
     transform="translate(-35.4,-311.6)" /><g
     id="g38"
     transform="translate(-35.4,-311.6)" /><g
     id="g40"
     transform="translate(-35.4,-311.6)" /><g
     id="g42"
     transform="translate(-35.4,-311.6)" /><g
     id="g44"
     transform="translate(-35.4,-311.6)" /><g
     id="g46"
     transform="translate(-35.4,-311.6)" /></svg>